<svg xmlns="http://www.w3.org/2000/svg" viewBox="0 0 720 920" role="img" aria-labelledby="title desc">
  <title id="title">Brand launch influencer visual</title>
  <desc id="desc">A stylized product launch connected to creators and social proof.</desc>
  <defs>
    <linearGradient id="bg" x1="78" y1="68" x2="649" y2="840" gradientUnits="userSpaceOnUse">
      <stop stop-color="#fff9ef"/>
      <stop offset=".47" stop-color="#f7fbff"/>
      <stop offset="1" stop-color="#ffe8f0"/>
    </linearGradient>
    <linearGradient id="product" x1="269" y1="191" x2="449" y2="615" gradientUnits="userSpaceOnUse">
      <stop stop-color="#222932"/>
      <stop offset="1" stop-color="#175db2"/>
    </linearGradient>
    <linearGradient id="accent" x1="142" y1="162" x2="598" y2="761" gradientUnits="userSpaceOnUse">
      <stop stop-color="#ff9e18"/>
      <stop offset="1" stop-color="#ff5478"/>
    </linearGradient>
    <filter id="shadow" x="-20%" y="-20%" width="140%" height="140%">
      <feDropShadow dx="0" dy="24" stdDeviation="28" flood-color="#4a2332" flood-opacity=".18"/>
    </filter>
  </defs>
  <rect width="720" height="920" rx="56" fill="url(#bg)"/>
  <circle cx="610" cy="164" r="112" fill="#fff" opacity=".7"/>
  <circle cx="119" cy="727" r="132" fill="#ffe4c5" opacity=".6"/>
  <path d="M116 285c86-130 263-169 397-86 139 85 184 266 101 407-82 139-262 189-405 113C74 646 26 420 116 285Z" fill="#fff" opacity=".52"/>
  <rect x="94" y="126" width="532" height="668" rx="48" fill="#fff" opacity=".78" filter="url(#shadow)"/>
  <path d="M360 194c86 0 156 70 156 156s-70 156-156 156-156-70-156-156 70-156 156-156Z" fill="#fff3e5"/>
  <rect x="300" y="230" width="120" height="254" rx="36" fill="url(#product)"/>
  <rect x="320" y="201" width="80" height="58" rx="22" fill="#222932"/>
  <rect x="323" y="320" width="74" height="78" rx="22" fill="#fff" opacity=".16"/>
  <text x="337" y="365" font-family="Arial, sans-serif" font-size="20" font-weight="900" fill="#fff">BRAND</text>
  <g transform="translate(130 244)">
    <rect width="154" height="178" rx="32" fill="#f3f7ff"/>
    <circle cx="77" cy="70" r="42" fill="#cfe2ff"/>
    <circle cx="77" cy="76" r="30" fill="#f6b58d"/>
    <path d="M42 153h70" stroke="#175db2" stroke-width="11" stroke-linecap="round"/>
    <path d="M42 127h96" stroke="#222932" stroke-width="13" stroke-linecap="round"/>
  </g>
  <g transform="translate(436 244)">
    <rect width="154" height="178" rx="32" fill="#fff7ed"/>
    <circle cx="77" cy="70" r="42" fill="#ffd2ae"/>
    <circle cx="77" cy="77" r="30" fill="#a65f38"/>
    <path d="M42 153h74" stroke="#ff9e18" stroke-width="11" stroke-linecap="round"/>
    <path d="M42 127h96" stroke="#222932" stroke-width="13" stroke-linecap="round"/>
  </g>
  <g transform="translate(130 550)">
    <rect width="460" height="150" rx="36" fill="url(#accent)"/>
    <text x="40" y="65" font-family="Arial, sans-serif" font-size="28" font-weight="900" fill="#fff">Launch reach unlocked</text>
    <text x="40" y="103" font-family="Arial, sans-serif" font-size="18" font-weight="700" fill="#fff7ed">Creators, content, and conversion signals</text>
    <circle cx="380" cy="75" r="42" fill="#fff" opacity=".22"/>
    <path d="M360 75h40m-20-20v40" stroke="#fff" stroke-width="11" stroke-linecap="round"/>
  </g>
  <path d="M284 331h-60m272 0h-60m-76 176v43" stroke="#ff9e18" stroke-width="10" stroke-linecap="round" stroke-dasharray="1 22"/>
</svg>
